<svg data-v-c0b64f6d="" data-v-172cf1a9="" fill="white" xmlns="http://www.w3.org/2000/svg" viewBox="0 0 273.634 43.886" class="max-w-[300px] mx-auto"><g transform="translate(-32.375 -5)" data-v-c0b64f6d=""><g class="class-1" data-v-c0b64f6d=""><path d="M160.554 39.297a1.7 1.7 0 01-1.619-2.629l5.842-12.577a3.23 3.23 0 011.031-1.339 2.475 2.475 0 011.444-.412 2.425 2.425 0 011.409.412 3.23 3.23 0 011.031 1.338l5.845 12.58a1.851 1.851 0 01.047 1.891 1.728 1.728 0 01-1.549.738 2.224 2.224 0 01-1.444-.412 3.536 3.536 0 01-.905-1.361l-.751-1.784h-7.4l-.751 1.784a4.33 4.33 0 01-.87 1.361 1.934 1.934 0 01-1.36.41zm6.645-12.254l-2.254 5.376h4.556l-2.254-5.376zM187.248 39.342a7.686 7.686 0 01-5.529-1.831 7.242 7.242 0 01-1.914-5.469v-7.534a2.191 2.191 0 01.563-1.619 2.54 2.54 0 013.194 0 2.192 2.192 0 01.563 1.619v7.583a4.043 4.043 0 00.8 2.724 3.379 3.379 0 004.626 0 4.043 4.043 0 00.8-2.724v-7.583a2.221 2.221 0 01.551-1.619 2.125 2.125 0 011.586-.565 2.082 2.082 0 011.573.565 2.244 2.244 0 01.538 1.619v7.534a7.34 7.34 0 01-1.866 5.469 7.5 7.5 0 01-5.485 1.831zM205.89 39.298a1.964 1.964 0 01-2.159-2.182V26.058h-3.687a1.7615 1.7615 0 110-3.523h11.693a1.7615 1.7615 0 110 3.523h-3.687v11.058a2.221 2.221 0 01-.551 1.619 2.151 2.151 0 01-1.609.563zM224.32 39.341a8.806 8.806 0 01-4.4-1.068 7.516 7.516 0 01-2.945-2.992 10.113 10.113 0 01-.013-8.981 7.376 7.376 0 012.947-2.97 9.726 9.726 0 018.814 0 7.466 7.466 0 012.947 2.97 10.061 10.061 0 010 8.981 7.522 7.522 0 01-2.947 2.992 8.8 8.8 0 01-4.403 1.068zm0-3.615a3.481 3.481 0 002.875-1.3 6.835 6.835 0 00.014-7.243 3.874 3.874 0 00-5.775 0 6.875 6.875 0 000 7.243 3.489 3.489 0 002.885 1.308zM239.883 39.087a1.982 1.982 0 01-2.254-2.231V24.764a1.98 1.98 0 012.254-2.229h5.727a6.527 6.527 0 014.145 1.161 3.769 3.769 0 011.466 3.112 3.946 3.946 0 01-.646 2.254 3.861 3.861 0 01-1.8 1.431 4.062 4.062 0 012.137 1.421 4 4 0 01.753 2.475 4.176 4.176 0 01-1.561 3.44 6.614 6.614 0 01-4.263 1.256zm1.877-9.98h3.077a2.889 2.889 0 001.724-.412 1.515 1.515 0 00.553-1.293 1.491 1.491 0 00-.553-1.279 2.9 2.9 0 00-1.724-.412h-3.077zm0 6.806h3.506a2.723 2.723 0 001.749-.458 1.677 1.677 0 00.551-1.373 1.647 1.647 0 00-.551-1.361 2.774 2.774 0 00-1.749-.448h-3.506zM257.19 39.297a1.7 1.7 0 01-1.621-2.629l5.853-12.588a3.228 3.228 0 011.031-1.338 2.46 2.46 0 011.431-.412 2.42 2.42 0 011.408.412 3.2 3.2 0 011.031 1.338l5.846 12.58a1.852 1.852 0 01.048 1.891 1.728 1.728 0 01-1.549.738 2.257 2.257 0 01-1.444-.413 3.557 3.557 0 01-.9-1.361l-.751-1.784h-7.4l-.753 1.784a4.3 4.3 0 01-.868 1.361 1.924 1.924 0 01-1.362.421zm6.645-12.254l-2.254 5.377h4.553l-2.254-5.377zM282.616 39.341a15.461 15.461 0 01-2.947-.293 10.172 10.172 0 01-2.594-.825 1.837 1.837 0 01-.891-.825 1.808 1.808 0 01-.188-1.068 2.025 2.025 0 01.4-.986 1.629 1.629 0 01.868-.588 1.788 1.788 0 011.221.153 7.891 7.891 0 002.021.67 10.911 10.911 0 002.112.223 4.155 4.155 0 002.172-.413 1.2 1.2 0 00.619-1.031 1.03 1.03 0 00-.435-.87 4.018 4.018 0 00-1.536-.563l-2.747-.586q-4.461-.965-4.461-4.673a4.716 4.716 0 01.881-2.84 5.665 5.665 0 012.462-1.881 9.317 9.317 0 013.663-.668 11.656 11.656 0 012.475.27 7.266 7.266 0 012.172.808 1.7 1.7 0 01.893 1.031 1.913 1.913 0 01-.047 1.256 1.584 1.584 0 01-.825.891 1.867 1.867 0 01-1.514-.093 6.945 6.945 0 00-1.551-.458 9.122 9.122 0 00-1.65-.153 3.712 3.712 0 00-2.019.458 1.369 1.369 0 00-.7 1.186 1.019 1.019 0 00.412.844 3.8 3.8 0 001.5.565l2.724.586q4.537.965 4.537 4.556a4.663 4.663 0 01-.868 2.817 5.59 5.59 0 01-2.442 1.856 9.562 9.562 0 01-3.717.644zM296.351 39.087a1.982 1.982 0 01-2.254-2.231V24.764a1.981 1.981 0 012.254-2.229h7.967a1.478 1.478 0 011.691 1.65 1.494 1.494 0 01-1.691 1.689h-6.082v3.151h5.568a1.6675 1.6675 0 110 3.335h-5.568v3.4h6.082a1.668 1.668 0 110 3.335z" data-v-c0b64f6d=""></path></g><path class="class-1" d="M67.638 24.317a4.53 4.53 0 10-1.69-3.529 4.524 4.524 0 001.69 3.529zM50.283 36.446a3.224 3.224 0 102.449-1.127 3.208 3.208 0 00-2.449 1.127zM121.363 36.448a3.208 3.208 0 100 4.156 3.208 3.208 0 000-4.156z" data-v-c0b64f6d=""></path><ellipse cx="4.855" cy="4.839" fill="#fdfefe" rx="4.855" ry="4.839" transform="translate(100.107 11.674)" data-v-c0b64f6d=""></ellipse><path class="class-1" d="M83.598 34.288a2.566 2.566 0 101.979-.933 2.552 2.552 0 00-1.979.933zM81.895 41.405a6.629 6.629 0 01-2.786-6.9 3.442 3.442 0 00-.946-3.15l-1.545-1.546a3.51 3.51 0 00-3.551-.839 8.663 8.663 0 01-4.91.083 4.222 4.222 0 00-4.132 1.052l-2.153 2.154a6.793 6.793 0 00-1.9 5.521 7.276 7.276 0 01-12.765 5.478 7.614 7.614 0 010-9.48 7.264 7.264 0 016.237-2.494 7.227 7.227 0 005.783-2.135l1.822-1.821a4.353 4.353 0 001.148-4.228 8.637 8.637 0 01.629-6.241.855.855 0 00-.858-1.246l-22.314 2.746a4.17 4.17 0 00-3.093 2.031l-3.529 6.05a4.767 4.767 0 00-.3 4.215l4.185 10.189a1.885 1.885 0 001.75 1.169h1.58a4.374 4.374 0 013.713 2.024 10.309 10.309 0 0017.484 0 4.371 4.371 0 013.709-2.024h16.556a.338.338 0 00.186-.611z" data-v-c0b64f6d=""></path><path class="class-2" d="M140.138 17.629L119.174 5.46a3.421 3.421 0 00-1.723-.462l-30.2.066a10.984 10.984 0 00-5.775 1.657l-7.539 4.69a.887.887 0 00.09 1.559 8.438 8.438 0 012.039 1.3 8.593 8.593 0 012.583 9.127 3.5 3.5 0 00.844 3.529l1.546 1.545a3.506 3.506 0 003.194.938 6.653 6.653 0 012.377-.058 4.421 4.421 0 003.834-1.208l2.963-2.963a9.4 9.4 0 002.7-7.68 8.914 8.914 0 1116.719 3.208 4.576 4.576 0 00.131 4.615l2.5 3.949a4.582 4.582 0 003.595 2.1 9.063 9.063 0 013.065.7 7.218 7.218 0 11-9.815 3.529 4.54 4.54 0 00-.351-4.268l-2.406-3.792a4.652 4.652 0 00-4.153-2.132 9.038 9.038 0 01-1.428-.047 9.21 9.21 0 00-7.568 2.591l-3.059 3.06a4.381 4.381 0 00-1.229 3.8 6.628 6.628 0 01-2.844 6.577.337.337 0 00.191.616h17.011a4.374 4.374 0 013.71 2.024 10.309 10.309 0 0017.484 0 4.371 4.371 0 013.708-2.024h2.31a3.807 3.807 0 003.272-1.864l4.411-7.439a3.4 3.4 0 00.481-1.744V20.585a3.417 3.417 0 00-1.704-2.956z" data-v-c0b64f6d=""></path></g></svg>